<mxfile host="app.diagrams.net" modified="2021-10-06T21:08:19.559Z" agent="5.0 (Windows NT 10.0; Win64; x64) AppleWebKit/537.36 (KHTML, like Gecko) Chrome/94.0.4606.71 Safari/537.36" etag="kGOXruug-Ed742t1j6Do" version="15.4.3" type="github">
  <diagram name="Page-1" id="7e0a89b8-554c-2b80-1dc8-d5c74ca68de4">
    <mxGraphModel dx="1151" dy="1771" grid="1" gridSize="10" guides="1" tooltips="1" connect="1" arrows="1" fold="1" page="1" pageScale="1" pageWidth="1100" pageHeight="850" background="none" math="0" shadow="0">
      <root>
        <mxCell id="0" />
        <mxCell id="1" parent="0" />
        <mxCell id="th5WkZY910EmhiSI5jE_-1" value="Teensy 3.2" style="rounded=0;whiteSpace=wrap;html=1;" vertex="1" parent="1">
          <mxGeometry x="130" y="150" width="610" height="250" as="geometry" />
        </mxCell>
        <mxCell id="th5WkZY910EmhiSI5jE_-32" style="edgeStyle=none;rounded=1;orthogonalLoop=1;jettySize=auto;html=1;exitX=0.695;exitY=0;exitDx=0;exitDy=0;endArrow=none;endFill=0;sketch=1;jumpStyle=arc;strokeWidth=3;fillColor=#e3c800;strokeColor=#B09500;exitPerimeter=0;entryX=1;entryY=0.5;entryDx=0;entryDy=0;entryPerimeter=0;" edge="1" parent="1" source="th5WkZY910EmhiSI5jE_-1" target="th5WkZY910EmhiSI5jE_-53">
          <mxGeometry relative="1" as="geometry">
            <mxPoint x="890" y="130" as="targetPoint" />
            <mxPoint x="570" y="135" as="sourcePoint" />
            <Array as="points">
              <mxPoint x="554" y="130" />
              <mxPoint x="670" y="130" />
              <mxPoint x="790" y="130" />
              <mxPoint x="970" y="130" />
            </Array>
          </mxGeometry>
        </mxCell>
        <mxCell id="th5WkZY910EmhiSI5jE_-33" value="16 / A2" style="edgeLabel;html=1;align=center;verticalAlign=middle;resizable=0;points=[];" vertex="1" connectable="0" parent="th5WkZY910EmhiSI5jE_-32">
          <mxGeometry x="-0.5323" y="-3" relative="1" as="geometry">
            <mxPoint x="-19" y="87" as="offset" />
          </mxGeometry>
        </mxCell>
        <mxCell id="th5WkZY910EmhiSI5jE_-46" style="edgeStyle=none;rounded=1;sketch=1;jumpStyle=arc;orthogonalLoop=1;jettySize=auto;html=1;exitX=0.049;exitY=-0.014;exitDx=0;exitDy=0;endArrow=none;endFill=0;exitPerimeter=0;strokeWidth=3;" edge="1" parent="1" source="th5WkZY910EmhiSI5jE_-1">
          <mxGeometry relative="1" as="geometry">
            <mxPoint x="160" y="100" as="targetPoint" />
          </mxGeometry>
        </mxCell>
        <mxCell id="th5WkZY910EmhiSI5jE_-47" style="edgeStyle=none;rounded=1;sketch=1;jumpStyle=arc;orthogonalLoop=1;jettySize=auto;html=1;exitX=0.082;exitY=-0.003;exitDx=0;exitDy=0;endArrow=none;endFill=0;exitPerimeter=0;fillColor=#e51400;strokeColor=#B20000;strokeWidth=3;" edge="1" parent="1" source="th5WkZY910EmhiSI5jE_-1">
          <mxGeometry relative="1" as="geometry">
            <mxPoint x="180" y="30" as="targetPoint" />
          </mxGeometry>
        </mxCell>
        <mxCell id="th5WkZY910EmhiSI5jE_-49" value="3.3" style="edgeLabel;html=1;align=center;verticalAlign=middle;resizable=0;points=[];" vertex="1" connectable="0" parent="th5WkZY910EmhiSI5jE_-47">
          <mxGeometry x="-0.3321" y="-3" relative="1" as="geometry">
            <mxPoint x="7" y="28" as="offset" />
          </mxGeometry>
        </mxCell>
        <mxCell id="th5WkZY910EmhiSI5jE_-51" style="edgeStyle=none;rounded=1;sketch=1;jumpStyle=arc;orthogonalLoop=1;jettySize=auto;html=1;exitX=0.037;exitY=1;exitDx=0;exitDy=0;endArrow=none;endFill=0;strokeWidth=3;exitPerimeter=0;" edge="1" parent="1" source="th5WkZY910EmhiSI5jE_-1">
          <mxGeometry relative="1" as="geometry">
            <mxPoint x="140" y="530" as="targetPoint" />
          </mxGeometry>
        </mxCell>
        <mxCell id="th5WkZY910EmhiSI5jE_-52" value="GND" style="edgeLabel;html=1;align=center;verticalAlign=middle;resizable=0;points=[];" vertex="1" connectable="0" parent="th5WkZY910EmhiSI5jE_-51">
          <mxGeometry x="-0.5225" y="-3" relative="1" as="geometry">
            <mxPoint as="offset" />
          </mxGeometry>
        </mxCell>
        <mxCell id="th5WkZY910EmhiSI5jE_-14" style="edgeStyle=none;rounded=0;orthogonalLoop=1;jettySize=auto;html=1;exitX=0.5;exitY=1;exitDx=0;exitDy=0;exitPerimeter=0;endArrow=none;endFill=0;fillColor=#e51400;strokeColor=#B20000;strokeWidth=2;" edge="1" parent="1" source="th5WkZY910EmhiSI5jE_-3">
          <mxGeometry relative="1" as="geometry">
            <mxPoint x="1100" y="670" as="targetPoint" />
          </mxGeometry>
        </mxCell>
        <mxCell id="th5WkZY910EmhiSI5jE_-15" style="edgeStyle=none;rounded=0;orthogonalLoop=1;jettySize=auto;html=1;entryX=1;entryY=0.25;entryDx=0;entryDy=0;endArrow=none;endFill=0;strokeWidth=3;fillColor=#e51400;strokeColor=#B20000;" edge="1" parent="1" target="th5WkZY910EmhiSI5jE_-4">
          <mxGeometry relative="1" as="geometry">
            <mxPoint x="930" y="650" as="sourcePoint" />
          </mxGeometry>
        </mxCell>
        <mxCell id="th5WkZY910EmhiSI5jE_-16" style="edgeStyle=none;rounded=0;orthogonalLoop=1;jettySize=auto;html=1;exitX=1;exitY=0.25;exitDx=0;exitDy=0;exitPerimeter=0;endArrow=none;endFill=0;" edge="1" parent="1" source="th5WkZY910EmhiSI5jE_-3">
          <mxGeometry relative="1" as="geometry">
            <mxPoint x="930" y="650" as="targetPoint" />
          </mxGeometry>
        </mxCell>
        <mxCell id="th5WkZY910EmhiSI5jE_-30" style="edgeStyle=none;rounded=0;orthogonalLoop=1;jettySize=auto;html=1;exitX=0;exitY=0.25;exitDx=0;exitDy=0;exitPerimeter=0;endArrow=none;endFill=0;strokeWidth=2;" edge="1" parent="1" source="th5WkZY910EmhiSI5jE_-3">
          <mxGeometry relative="1" as="geometry">
            <mxPoint x="1090" y="780" as="targetPoint" />
          </mxGeometry>
        </mxCell>
        <mxCell id="th5WkZY910EmhiSI5jE_-3" value="A10 k&amp;nbsp;&lt;br&gt;PotentiomÃ¨tre exponentielle&lt;br&gt;(le grand)" style="pointerEvents=1;verticalLabelPosition=top;shadow=0;dashed=0;align=center;html=1;verticalAlign=top;shape=mxgraph.electrical.resistors.potentiometer_1;labelPosition=center;rotation=-90;horizontal=1;" vertex="1" parent="1">
          <mxGeometry x="890" y="690" width="100" height="40" as="geometry" />
        </mxCell>
        <mxCell id="th5WkZY910EmhiSI5jE_-6" style="edgeStyle=none;rounded=0;orthogonalLoop=1;jettySize=auto;html=1;exitX=1;exitY=0.5;exitDx=0;exitDy=0;entryX=0;entryY=0.25;entryDx=0;entryDy=0;entryPerimeter=0;endArrow=none;endFill=0;strokeWidth=3;" edge="1" parent="1" source="th5WkZY910EmhiSI5jE_-4" target="th5WkZY910EmhiSI5jE_-3">
          <mxGeometry relative="1" as="geometry" />
        </mxCell>
        <mxCell id="th5WkZY910EmhiSI5jE_-11" value="GNd (-)" style="edgeLabel;html=1;align=center;verticalAlign=middle;resizable=0;points=[];" vertex="1" connectable="0" parent="th5WkZY910EmhiSI5jE_-6">
          <mxGeometry x="-0.6484" y="3" relative="1" as="geometry">
            <mxPoint x="-13" y="27" as="offset" />
          </mxGeometry>
        </mxCell>
        <mxCell id="th5WkZY910EmhiSI5jE_-4" value="Shield&amp;nbsp;&lt;br&gt;Connexion avec le teensy a voir sur&amp;nbsp;&lt;br&gt;" style="rounded=0;whiteSpace=wrap;html=1;" vertex="1" parent="1">
          <mxGeometry x="190" y="625" width="520" height="170" as="geometry" />
        </mxCell>
        <mxCell id="th5WkZY910EmhiSI5jE_-17" style="edgeStyle=none;rounded=0;orthogonalLoop=1;jettySize=auto;html=1;exitX=0;exitY=0.5;exitDx=0;exitDy=0;endArrow=none;endFill=0;fillColor=#e51400;strokeColor=#B20000;strokeWidth=2;" edge="1" parent="1" source="th5WkZY910EmhiSI5jE_-7">
          <mxGeometry relative="1" as="geometry">
            <mxPoint x="1100" y="670" as="targetPoint" />
          </mxGeometry>
        </mxCell>
        <mxCell id="th5WkZY910EmhiSI5jE_-24" value="+" style="edgeLabel;html=1;align=center;verticalAlign=middle;resizable=0;points=[];" vertex="1" connectable="0" parent="th5WkZY910EmhiSI5jE_-17">
          <mxGeometry x="-0.2599" y="-3" relative="1" as="geometry">
            <mxPoint as="offset" />
          </mxGeometry>
        </mxCell>
        <mxCell id="th5WkZY910EmhiSI5jE_-20" style="edgeStyle=none;rounded=0;orthogonalLoop=1;jettySize=auto;html=1;exitX=0;exitY=1;exitDx=0;exitDy=0;endArrow=none;endFill=0;strokeWidth=2;" edge="1" parent="1" source="th5WkZY910EmhiSI5jE_-7">
          <mxGeometry relative="1" as="geometry">
            <mxPoint x="1090" y="780" as="targetPoint" />
          </mxGeometry>
        </mxCell>
        <mxCell id="th5WkZY910EmhiSI5jE_-27" value="GND" style="edgeLabel;html=1;align=center;verticalAlign=middle;resizable=0;points=[];" vertex="1" connectable="0" parent="th5WkZY910EmhiSI5jE_-20">
          <mxGeometry x="-0.6083" relative="1" as="geometry">
            <mxPoint as="offset" />
          </mxGeometry>
        </mxCell>
        <mxCell id="th5WkZY910EmhiSI5jE_-7" value="HP" style="ellipse;whiteSpace=wrap;html=1;aspect=fixed;" vertex="1" parent="1">
          <mxGeometry x="1180" y="580" width="80" height="80" as="geometry" />
        </mxCell>
        <mxCell id="th5WkZY910EmhiSI5jE_-18" style="edgeStyle=none;rounded=0;orthogonalLoop=1;jettySize=auto;html=1;exitX=0;exitY=0;exitDx=0;exitDy=0;endArrow=none;endFill=0;fillColor=#e51400;strokeColor=#B20000;strokeWidth=2;" edge="1" parent="1" source="th5WkZY910EmhiSI5jE_-8">
          <mxGeometry relative="1" as="geometry">
            <mxPoint x="1100" y="670" as="targetPoint" />
          </mxGeometry>
        </mxCell>
        <mxCell id="th5WkZY910EmhiSI5jE_-29" value="+" style="edgeLabel;html=1;align=center;verticalAlign=middle;resizable=0;points=[];" vertex="1" connectable="0" parent="th5WkZY910EmhiSI5jE_-18">
          <mxGeometry x="-0.5011" y="2" relative="1" as="geometry">
            <mxPoint as="offset" />
          </mxGeometry>
        </mxCell>
        <mxCell id="th5WkZY910EmhiSI5jE_-19" style="edgeStyle=none;rounded=0;orthogonalLoop=1;jettySize=auto;html=1;exitX=0;exitY=0.5;exitDx=0;exitDy=0;endArrow=none;endFill=0;strokeWidth=2;" edge="1" parent="1" source="th5WkZY910EmhiSI5jE_-8">
          <mxGeometry relative="1" as="geometry">
            <mxPoint x="1090" y="780" as="targetPoint" />
          </mxGeometry>
        </mxCell>
        <mxCell id="th5WkZY910EmhiSI5jE_-28" value="GND" style="edgeLabel;html=1;align=center;verticalAlign=middle;resizable=0;points=[];" vertex="1" connectable="0" parent="th5WkZY910EmhiSI5jE_-19">
          <mxGeometry x="-0.5461" y="3" relative="1" as="geometry">
            <mxPoint y="1" as="offset" />
          </mxGeometry>
        </mxCell>
        <mxCell id="th5WkZY910EmhiSI5jE_-8" value="HP" style="ellipse;whiteSpace=wrap;html=1;aspect=fixed;" vertex="1" parent="1">
          <mxGeometry x="1180" y="700" width="80" height="80" as="geometry" />
        </mxCell>
        <mxCell id="th5WkZY910EmhiSI5jE_-9" style="edgeStyle=none;rounded=0;orthogonalLoop=1;jettySize=auto;html=1;exitX=1;exitY=0.5;exitDx=0;exitDy=0;endArrow=none;endFill=0;" edge="1" parent="1" source="th5WkZY910EmhiSI5jE_-4" target="th5WkZY910EmhiSI5jE_-4">
          <mxGeometry relative="1" as="geometry" />
        </mxCell>
        <mxCell id="th5WkZY910EmhiSI5jE_-13" value="+ audio" style="text;html=1;align=center;verticalAlign=middle;resizable=0;points=[];autosize=1;strokeColor=none;fillColor=none;" vertex="1" parent="1">
          <mxGeometry x="700" y="650" width="60" height="20" as="geometry" />
        </mxCell>
        <mxCell id="th5WkZY910EmhiSI5jE_-35" style="edgeStyle=none;rounded=0;orthogonalLoop=1;jettySize=auto;html=1;exitX=0.25;exitY=1;exitDx=0;exitDy=0;endArrow=none;endFill=0;fillColor=#e51400;strokeColor=#B20000;sketch=1;strokeWidth=4;" edge="1" parent="1" source="th5WkZY910EmhiSI5jE_-34">
          <mxGeometry relative="1" as="geometry">
            <mxPoint x="180" y="35" as="targetPoint" />
            <Array as="points">
              <mxPoint x="780" y="50" />
              <mxPoint x="680" y="35" />
              <mxPoint x="620" y="35" />
            </Array>
          </mxGeometry>
        </mxCell>
        <mxCell id="th5WkZY910EmhiSI5jE_-36" style="edgeStyle=none;rounded=1;orthogonalLoop=1;jettySize=auto;html=1;exitX=0.5;exitY=1;exitDx=0;exitDy=0;endArrow=none;endFill=0;strokeWidth=3;entryX=0;entryY=0.5;entryDx=0;entryDy=0;entryPerimeter=0;" edge="1" parent="1" source="th5WkZY910EmhiSI5jE_-34" target="th5WkZY910EmhiSI5jE_-54">
          <mxGeometry relative="1" as="geometry">
            <mxPoint x="880" y="175" as="targetPoint" />
            <Array as="points">
              <mxPoint x="940" y="50" />
              <mxPoint x="830" y="80" />
              <mxPoint x="830" y="175" />
            </Array>
          </mxGeometry>
        </mxCell>
        <mxCell id="th5WkZY910EmhiSI5jE_-39" style="edgeStyle=none;rounded=1;sketch=1;jumpStyle=arc;orthogonalLoop=1;jettySize=auto;html=1;exitX=0.75;exitY=1;exitDx=0;exitDy=0;endArrow=none;endFill=0;fillColor=#e3c800;strokeColor=#B09500;strokeWidth=3;entryX=0;entryY=0.5;entryDx=0;entryDy=0;entryPerimeter=0;" edge="1" parent="1" source="th5WkZY910EmhiSI5jE_-34" target="th5WkZY910EmhiSI5jE_-53">
          <mxGeometry relative="1" as="geometry">
            <mxPoint x="1080" y="120" as="targetPoint" />
            <Array as="points">
              <mxPoint x="970" y="50" />
              <mxPoint x="900" y="80" />
            </Array>
          </mxGeometry>
        </mxCell>
        <mxCell id="th5WkZY910EmhiSI5jE_-34" value="mic" style="rounded=0;whiteSpace=wrap;html=1;align=center;verticalAlign=top;" vertex="1" parent="1">
          <mxGeometry x="880" y="-10" width="120" height="30" as="geometry" />
        </mxCell>
        <mxCell id="th5WkZY910EmhiSI5jE_-40" value="AUD" style="text;html=1;align=center;verticalAlign=middle;resizable=0;points=[];autosize=1;strokeColor=none;fillColor=none;" vertex="1" parent="1">
          <mxGeometry x="1070" y="50" width="40" height="20" as="geometry" />
        </mxCell>
        <mxCell id="th5WkZY910EmhiSI5jE_-41" value="GND" style="text;html=1;align=center;verticalAlign=middle;resizable=0;points=[];autosize=1;strokeColor=none;fillColor=none;" vertex="1" parent="1">
          <mxGeometry x="1040" y="50" width="40" height="20" as="geometry" />
        </mxCell>
        <mxCell id="th5WkZY910EmhiSI5jE_-42" value="Vin" style="text;html=1;align=center;verticalAlign=middle;resizable=0;points=[];autosize=1;strokeColor=none;fillColor=none;" vertex="1" parent="1">
          <mxGeometry x="985" y="50" width="30" height="20" as="geometry" />
        </mxCell>
        <mxCell id="th5WkZY910EmhiSI5jE_-45" value="" style="group" vertex="1" connectable="0" parent="1">
          <mxGeometry x="100" y="40" width="38.460000000000036" height="108.25" as="geometry" />
        </mxCell>
        <mxCell id="th5WkZY910EmhiSI5jE_-43" style="edgeStyle=none;rounded=1;sketch=1;jumpStyle=arc;orthogonalLoop=1;jettySize=auto;html=1;exitX=0.086;exitY=-0.007;exitDx=0;exitDy=0;endArrow=none;endFill=0;exitPerimeter=0;strokeWidth=3;fillColor=#e51400;strokeColor=#B20000;" edge="1" parent="th5WkZY910EmhiSI5jE_-45">
          <mxGeometry relative="1" as="geometry">
            <mxPoint x="38" as="targetPoint" />
            <mxPoint x="38.460000000000036" y="108.25" as="sourcePoint" />
          </mxGeometry>
        </mxCell>
        <mxCell id="th5WkZY910EmhiSI5jE_-44" value="Vin" style="text;html=1;align=center;verticalAlign=middle;resizable=0;points=[];autosize=1;strokeColor=none;fillColor=none;" vertex="1" parent="th5WkZY910EmhiSI5jE_-45">
          <mxGeometry y="50" width="30" height="20" as="geometry" />
        </mxCell>
        <mxCell id="th5WkZY910EmhiSI5jE_-48" value="AGND&lt;br&gt;Audio ground" style="text;html=1;align=center;verticalAlign=middle;resizable=0;points=[];autosize=1;strokeColor=none;fillColor=none;" vertex="1" parent="1">
          <mxGeometry x="125" y="155" width="90" height="30" as="geometry" />
        </mxCell>
        <mxCell id="th5WkZY910EmhiSI5jE_-60" style="edgeStyle=none;rounded=1;sketch=1;jumpStyle=arc;orthogonalLoop=1;jettySize=auto;html=1;endArrow=none;endFill=0;strokeWidth=3;" edge="1" parent="1">
          <mxGeometry relative="1" as="geometry">
            <mxPoint x="160" y="100" as="targetPoint" />
            <mxPoint x="830" y="100" as="sourcePoint" />
            <Array as="points">
              <mxPoint x="760" y="100" />
            </Array>
          </mxGeometry>
        </mxCell>
        <mxCell id="th5WkZY910EmhiSI5jE_-61" value="" style="group" vertex="1" connectable="0" parent="1">
          <mxGeometry x="890" y="90" width="100" height="95" as="geometry" />
        </mxCell>
        <mxCell id="th5WkZY910EmhiSI5jE_-53" value="5K" style="pointerEvents=1;verticalLabelPosition=middle;shadow=0;dashed=0;align=center;html=1;verticalAlign=middle;shape=mxgraph.electrical.resistors.resistor_1;labelPosition=center;" vertex="1" parent="th5WkZY910EmhiSI5jE_-61">
          <mxGeometry width="100" height="20" as="geometry" />
        </mxCell>
        <mxCell id="th5WkZY910EmhiSI5jE_-54" value="2K" style="pointerEvents=1;verticalLabelPosition=middle;shadow=0;dashed=0;align=center;html=1;verticalAlign=middle;shape=mxgraph.electrical.resistors.resistor_1;labelPosition=center;" vertex="1" parent="th5WkZY910EmhiSI5jE_-61">
          <mxGeometry y="75" width="100" height="20" as="geometry" />
        </mxCell>
        <mxCell id="th5WkZY910EmhiSI5jE_-58" style="edgeStyle=none;rounded=1;sketch=1;jumpStyle=arc;orthogonalLoop=1;jettySize=auto;html=1;exitX=1;exitY=0.5;exitDx=0;exitDy=0;exitPerimeter=0;entryX=1;entryY=0.5;entryDx=0;entryDy=0;entryPerimeter=0;endArrow=none;endFill=0;strokeWidth=3;" edge="1" parent="th5WkZY910EmhiSI5jE_-61" source="th5WkZY910EmhiSI5jE_-54" target="th5WkZY910EmhiSI5jE_-53">
          <mxGeometry relative="1" as="geometry" />
        </mxCell>
      </root>
    </mxGraphModel>
  </diagram>
</mxfile>
